<?xml version="1.0" encoding="utf-8"?>
<!-- Generator: Adobe Illustrator 21.0.0, SVG Export Plug-In . SVG Version: 6.00 Build 0)  -->
<!DOCTYPE svg PUBLIC "-//W3C//DTD SVG 1.1//EN" "http://www.w3.org/Graphics/SVG/1.1/DTD/svg11.dtd">
<svg version="1.1" id="Layer_1" xmlns="http://www.w3.org/2000/svg" xmlns:xlink="http://www.w3.org/1999/xlink" x="0px" y="0px"
	 viewBox="0 0 25.4 25.4" enable-background="new 0 0 25.4 25.4" xml:space="preserve">
<g id="Lock">
	<path fill="#F6A31E" d="M12.1,21.4c-1.3-0.6-6-3.4-7-10.4l1.8-0.6l1.7-0.6l3.5-1.2l3.5,1.2l1.7,0.6L19,11
		C18.1,18.1,13.4,20.8,12.1,21.4z"/>
	<g>
		<path fill="#202C34" d="M17.3,8.6v-2c0-2.9-2.3-5.2-5.2-5.2c-2.9,0-5.2,2.3-5.2,5.2v2L3.2,9.8l0.1,0.7c0.9,9.7,8.2,12.6,8.5,12.7
			l0.3,0.1l0.3-0.1c0.3-0.1,7.5-3,8.5-12.7l0.1-0.7L17.3,8.6z M8.6,6.5c0-1.9,1.6-3.5,3.5-3.5c1.9,0,3.5,1.6,3.5,3.5V8l-3.5-1.2
			L8.6,8V6.5z M12.1,21.4c-1.3-0.6-6-3.4-7-10.4l1.8-0.6l1.7-0.6l3.5-1.2l3.5,1.2l1.7,0.6L19,11C18.1,18.1,13.4,20.8,12.1,21.4z"/>
		<path fill="#202C34" d="M12.2,11.3c0,0-0.1,0-0.1,0c0,0-0.1,0-0.1,0c-0.8,0.1-1.5,0.8-1.5,1.6c0,0,0,0.1,0,0.1
			c0,0.6,0.4,1.1,1,1.3l-0.7,3.1h2.7l-0.7-3.1c0.5-0.2,0.9-0.7,1-1.3c0,0,0-0.1,0-0.1C13.7,12.1,13,11.4,12.2,11.3z"/>
	</g>
</g>
</svg>
